solid CATIA STL
  facet normal  1.000000e+000  -0.000000e+000  0.000000e+000
    outer loop
      vertex  1.500000e+001  2.897774e+001  3.522485e+001
      vertex  1.500000e+001 -3.866042e-001  3.500085e+001
      vertex  1.500000e+001  1.134442e+001  3.423345e+001
    endloop
  endfacet
  facet normal  1.000000e+000  0.000000e+000  0.000000e+000
    outer loop
      vertex  1.500000e+001 -5.009232e+001  2.483474e+001
      vertex  1.500000e+001 -3.478967e+001  2.819864e+001
      vertex  1.500000e+001 -3.987489e+001  3.072046e+001
    endloop
  endfacet
  facet normal  1.000000e+000  -0.000000e+000  0.000000e+000
    outer loop
      vertex  1.500000e+001 -3.987489e+001  3.072046e+001
      vertex  1.500000e+001 -3.478967e+001  2.819864e+001
      vertex  1.500000e+001 -2.365075e+001  3.195766e+001
    endloop
  endfacet
  facet normal  1.000000e+000  0.000000e+000  0.000000e+000
    outer loop
      vertex  1.500000e+001 -3.987489e+001  3.072046e+001
      vertex  1.500000e+001 -2.365075e+001  3.195766e+001
      vertex  1.500000e+001 -2.897774e+001  3.522485e+001
    endloop
  endfacet
  facet normal  9.999999e-001  0.000000e+000  0.000000e+000
    outer loop
      vertex  1.500000e+001 -2.897774e+001  3.522485e+001
      vertex  1.500000e+001 -2.365075e+001  3.195766e+001
      vertex  1.500000e+001 -1.211792e+001  3.423795e+001
    endloop
  endfacet
  facet normal  1.000000e+000  0.000000e+000  -0.000000e+000
    outer loop
      vertex  1.500000e+001 -2.897774e+001  3.522485e+001
      vertex  1.500000e+001 -1.211792e+001  3.423795e+001
      vertex  1.500000e+001 -3.866042e-001  3.500085e+001
    endloop
  endfacet
  facet normal  1.000000e+000  0.000000e+000  -0.000000e+000
    outer loop
      vertex  1.500000e+001 -7.500000e+001  2.131628e-014
      vertex  1.500000e+001 -7.179745e+001 -6.139099e-004
      vertex  1.500000e+001 -6.780585e+001  9.342463e+000
    endloop
  endfacet
  facet normal  1.000000e+000  0.000000e+000  0.000000e+000
    outer loop
      vertex  1.500000e+001 -6.780585e+001  9.342463e+000
      vertex  1.500000e+001 -7.179745e+001 -6.139099e-004
      vertex  1.500000e+001 -6.400794e+001  8.804462e+000
    endloop
  endfacet
  facet normal  1.000000e+000  0.000000e+000  -0.000000e+000
    outer loop
      vertex  1.500000e+001 -6.780585e+001  9.342463e+000
      vertex  1.500000e+001 -6.400794e+001  8.804462e+000
      vertex  1.500000e+001 -5.945584e+001  1.766802e+001
    endloop
  endfacet
  facet normal  1.000000e+000  0.000000e+000  0.000000e+000
    outer loop
      vertex  1.500000e+001 -5.945584e+001  1.766802e+001
      vertex  1.500000e+001 -6.400794e+001  8.804462e+000
      vertex  1.500000e+001 -5.514069e+001  1.652312e+001
    endloop
  endfacet
  facet normal  1.000000e+000  0.000000e+000  -0.000000e+000
    outer loop
      vertex  1.500000e+001 -5.945584e+001  1.766802e+001
      vertex  1.500000e+001 -5.514069e+001  1.652312e+001
      vertex  1.500000e+001 -5.009232e+001  2.483474e+001
    endloop
  endfacet
  facet normal  9.999999e-001  0.000000e+000  0.000000e+000
    outer loop
      vertex  1.500000e+001 -5.009232e+001  2.483474e+001
      vertex  1.500000e+001 -5.514069e+001  1.652312e+001
      vertex  1.500000e+001 -4.534594e+001  2.302457e+001
    endloop
  endfacet
  facet normal  1.000000e+000  0.000000e+000  -0.000000e+000
    outer loop
      vertex  1.500000e+001 -5.009232e+001  2.483474e+001
      vertex  1.500000e+001 -4.534594e+001  2.302457e+001
      vertex  1.500000e+001 -3.478967e+001  2.819864e+001
    endloop
  endfacet
  facet normal  1.000000e+000  -0.000000e+000  0.000000e+000
    outer loop
      vertex  1.500000e+001  5.895707e+000  3.980735e+001
      vertex  1.500000e+001 -5.895707e+000  3.980735e+001
      vertex  1.500000e+001  1.758662e+001  3.827113e+001
    endloop
  endfacet
  facet normal  1.000000e+000  0.000000e+000  0.000000e+000
    outer loop
      vertex  1.500000e+001  1.758662e+001  3.827113e+001
      vertex  1.500000e+001 -5.895707e+000  3.980735e+001
      vertex  1.500000e+001 -1.758662e+001  3.827113e+001
    endloop
  endfacet
  facet normal  9.999999e-001  -0.000000e+000  0.000000e+000
    outer loop
      vertex  1.500000e+001  1.758662e+001  3.827113e+001
      vertex  1.500000e+001 -1.758662e+001  3.827113e+001
      vertex  1.500000e+001  2.897774e+001  3.522485e+001
    endloop
  endfacet
  facet normal  1.000000e+000  0.000000e+000  0.000000e+000
    outer loop
      vertex  1.500000e+001  2.897774e+001  3.522485e+001
      vertex  1.500000e+001 -1.758662e+001  3.827113e+001
      vertex  1.500000e+001 -2.897774e+001  3.522485e+001
    endloop
  endfacet
  facet normal  1.000000e+000  -0.000000e+000  0.000000e+000
    outer loop
      vertex  1.500000e+001  2.897774e+001  3.522485e+001
      vertex  1.500000e+001 -2.897774e+001  3.522485e+001
      vertex  1.500000e+001 -3.866042e-001  3.500085e+001
    endloop
  endfacet
  facet normal  9.999999e-001  -0.000000e+000  0.000000e+000
    outer loop
      vertex  1.500000e+001  2.897774e+001  3.522485e+001
      vertex  1.500000e+001  1.134442e+001  3.423345e+001
      vertex  1.500000e+001  3.987489e+001  3.072046e+001
    endloop
  endfacet
  facet normal  9.999999e-001  0.000000e+000  0.000000e+000
    outer loop
      vertex  1.500000e+001  3.987489e+001  3.072046e+001
      vertex  1.500000e+001  1.134442e+001  3.423345e+001
      vertex  1.500000e+001  2.287638e+001  3.194875e+001
    endloop
  endfacet
  facet normal  1.000000e+000  0.000000e+000  0.000000e+000
    outer loop
      vertex  1.500000e+001  3.987489e+001  3.072046e+001
      vertex  1.500000e+001  2.287638e+001  3.194875e+001
      vertex  1.500000e+001  5.009232e+001  2.483474e+001
    endloop
  endfacet
  facet normal  1.000000e+000  0.000000e+000  0.000000e+000
    outer loop
      vertex  1.500000e+001  5.009232e+001  2.483474e+001
      vertex  1.500000e+001  2.287638e+001  3.194875e+001
      vertex  1.500000e+001  3.401385e+001  2.818545e+001
    endloop
  endfacet
  facet normal  1.000000e+000  0.000000e+000  0.000000e+000
    outer loop
      vertex  1.500000e+001  5.009232e+001  2.483474e+001
      vertex  1.500000e+001  3.401385e+001  2.818545e+001
      vertex  1.500000e+001  4.456814e+001  2.300733e+001
    endloop
  endfacet
  facet normal  1.000000e+000  -0.000000e+000  0.000000e+000
    outer loop
      vertex  1.500000e+001  5.009232e+001  2.483474e+001
      vertex  1.500000e+001  4.456814e+001  2.300733e+001
      vertex  1.500000e+001  5.945584e+001  1.766802e+001
    endloop
  endfacet
  facet normal  1.000000e+000  0.000000e+000  0.000000e+000
    outer loop
      vertex  1.500000e+001  5.945584e+001  1.766802e+001
      vertex  1.500000e+001  4.456814e+001  2.300733e+001
      vertex  1.500000e+001  5.436039e+001  1.650213e+001
    endloop
  endfacet
  facet normal  9.999999e-001  -0.000000e+000  0.000000e+000
    outer loop
      vertex  1.500000e+001  5.945584e+001  1.766802e+001
      vertex  1.500000e+001  5.436039e+001  1.650213e+001
      vertex  1.500000e+001  6.780585e+001  9.342463e+000
    endloop
  endfacet
  facet normal  1.000000e+000  0.000000e+000  0.000000e+000
    outer loop
      vertex  1.500000e+001  6.780585e+001  9.342463e+000
      vertex  1.500000e+001  5.436039e+001  1.650213e+001
      vertex  1.500000e+001  6.322469e+001  8.780073e+000
    endloop
  endfacet
  facet normal  9.999999e-001  -0.000000e+000  0.000000e+000
    outer loop
      vertex  1.500000e+001  6.780585e+001  9.342463e+000
      vertex  1.500000e+001  6.322469e+001  8.780073e+000
      vertex  1.500000e+001  7.500000e+001  7.107162e-015
    endloop
  endfacet
  facet normal  1.000000e+000  0.000000e+000  0.000000e+000
    outer loop
      vertex  1.500000e+001  7.500000e+001  7.107162e-015
      vertex  1.500000e+001  6.322469e+001  8.780073e+000
      vertex  1.500000e+001  7.101083e+001 -2.798947e-002
    endloop
  endfacet
  facet normal -1.000000e+000  0.000000e+000  0.000000e+000
    outer loop
      vertex -1.500000e+001  1.134442e+001  3.423345e+001
      vertex -1.500000e+001 -3.866042e-001  3.500085e+001
      vertex -1.500000e+001  2.897774e+001  3.522485e+001
    endloop
  endfacet
  facet normal -1.000000e+000  0.000000e+000  0.000000e+000
    outer loop
      vertex -1.500000e+001 -3.866042e-001  3.500085e+001
      vertex -1.500000e+001 -1.211792e+001  3.423795e+001
      vertex -1.500000e+001 -2.897774e+001  3.522485e+001
    endloop
  endfacet
  facet normal -9.999999e-001  0.000000e+000  0.000000e+000
    outer loop
      vertex -1.500000e+001 -2.897774e+001  3.522485e+001
      vertex -1.500000e+001 -1.211792e+001  3.423795e+001
      vertex -1.500000e+001 -2.365075e+001  3.195766e+001
    endloop
  endfacet
  facet normal -1.000000e+000  -0.000000e+000  0.000000e+000
    outer loop
      vertex -1.500000e+001 -2.897774e+001  3.522485e+001
      vertex -1.500000e+001 -2.365075e+001  3.195766e+001
      vertex -1.500000e+001 -3.987489e+001  3.072046e+001
    endloop
  endfacet
  facet normal -1.000000e+000  0.000000e+000  0.000000e+000
    outer loop
      vertex -1.500000e+001 -3.987489e+001  3.072046e+001
      vertex -1.500000e+001 -2.365075e+001  3.195766e+001
      vertex -1.500000e+001 -3.478967e+001  2.819864e+001
    endloop
  endfacet
  facet normal -1.000000e+000  -0.000000e+000  0.000000e+000
    outer loop
      vertex -1.500000e+001 -3.987489e+001  3.072046e+001
      vertex -1.500000e+001 -3.478967e+001  2.819864e+001
      vertex -1.500000e+001 -5.009232e+001  2.483474e+001
    endloop
  endfacet
  facet normal -1.000000e+000  0.000000e+000  0.000000e+000
    outer loop
      vertex -1.500000e+001 -3.478967e+001  2.819864e+001
      vertex -1.500000e+001 -4.534594e+001  2.302457e+001
      vertex -1.500000e+001 -5.009232e+001  2.483474e+001
    endloop
  endfacet
  facet normal -9.999999e-001  0.000000e+000  -0.000000e+000
    outer loop
      vertex -1.500000e+001 -5.009232e+001  2.483474e+001
      vertex -1.500000e+001 -4.534594e+001  2.302457e+001
      vertex -1.500000e+001 -5.514069e+001  1.652312e+001
    endloop
  endfacet
  facet normal -1.000000e+000  0.000000e+000  0.000000e+000
    outer loop
      vertex -1.500000e+001 -5.009232e+001  2.483474e+001
      vertex -1.500000e+001 -5.514069e+001  1.652312e+001
      vertex -1.500000e+001 -5.945584e+001  1.766802e+001
    endloop
  endfacet
  facet normal -1.000000e+000  0.000000e+000  -0.000000e+000
    outer loop
      vertex -1.500000e+001 -5.945584e+001  1.766802e+001
      vertex -1.500000e+001 -5.514069e+001  1.652312e+001
      vertex -1.500000e+001 -6.400794e+001  8.804462e+000
    endloop
  endfacet
  facet normal -1.000000e+000  0.000000e+000  0.000000e+000
    outer loop
      vertex -1.500000e+001 -5.945584e+001  1.766802e+001
      vertex -1.500000e+001 -6.400794e+001  8.804462e+000
      vertex -1.500000e+001 -6.780585e+001  9.342463e+000
    endloop
  endfacet
  facet normal -1.000000e+000  0.000000e+000  -0.000000e+000
    outer loop
      vertex -1.500000e+001 -6.780585e+001  9.342463e+000
      vertex -1.500000e+001 -6.400794e+001  8.804462e+000
      vertex -1.500000e+001 -7.179745e+001 -6.139099e-004
    endloop
  endfacet
  facet normal -1.000000e+000  0.000000e+000  0.000000e+000
    outer loop
      vertex -1.500000e+001 -6.780585e+001  9.342463e+000
      vertex -1.500000e+001 -7.179745e+001 -6.139099e-004
      vertex -1.500000e+001 -7.500000e+001  2.131628e-014
    endloop
  endfacet
  facet normal -1.000000e+000  0.000000e+000  0.000000e+000
    outer loop
      vertex -1.500000e+001 -3.866042e-001  3.500085e+001
      vertex -1.500000e+001 -2.897774e+001  3.522485e+001
      vertex -1.500000e+001  2.897774e+001  3.522485e+001
    endloop
  endfacet
  facet normal -1.000000e+000  0.000000e+000  0.000000e+000
    outer loop
      vertex -1.500000e+001  2.897774e+001  3.522485e+001
      vertex -1.500000e+001 -2.897774e+001  3.522485e+001
      vertex -1.500000e+001 -1.758662e+001  3.827113e+001
    endloop
  endfacet
  facet normal -9.999999e-001  0.000000e+000  0.000000e+000
    outer loop
      vertex -1.500000e+001  2.897774e+001  3.522485e+001
      vertex -1.500000e+001 -1.758662e+001  3.827113e+001
      vertex -1.500000e+001  1.758662e+001  3.827113e+001
    endloop
  endfacet
  facet normal -1.000000e+000  0.000000e+000  0.000000e+000
    outer loop
      vertex -1.500000e+001  1.758662e+001  3.827113e+001
      vertex -1.500000e+001 -1.758662e+001  3.827113e+001
      vertex -1.500000e+001 -5.895707e+000  3.980735e+001
    endloop
  endfacet
  facet normal -1.000000e+000  0.000000e+000  0.000000e+000
    outer loop
      vertex -1.500000e+001  1.758662e+001  3.827113e+001
      vertex -1.500000e+001 -5.895707e+000  3.980735e+001
      vertex -1.500000e+001  5.895707e+000  3.980735e+001
    endloop
  endfacet
  facet normal -1.000000e+000  0.000000e+000  0.000000e+000
    outer loop
      vertex -1.500000e+001  4.456814e+001  2.300733e+001
      vertex -1.500000e+001  3.401385e+001  2.818545e+001
      vertex -1.500000e+001  5.009232e+001  2.483474e+001
    endloop
  endfacet
  facet normal -1.000000e+000  0.000000e+000  0.000000e+000
    outer loop
      vertex -1.500000e+001  5.009232e+001  2.483474e+001
      vertex -1.500000e+001  3.401385e+001  2.818545e+001
      vertex -1.500000e+001  2.287638e+001  3.194875e+001
    endloop
  endfacet
  facet normal -1.000000e+000  0.000000e+000  0.000000e+000
    outer loop
      vertex -1.500000e+001  5.009232e+001  2.483474e+001
      vertex -1.500000e+001  2.287638e+001  3.194875e+001
      vertex -1.500000e+001  3.987489e+001  3.072046e+001
    endloop
  endfacet
  facet normal -9.999999e-001  0.000000e+000  0.000000e+000
    outer loop
      vertex -1.500000e+001  3.987489e+001  3.072046e+001
      vertex -1.500000e+001  2.287638e+001  3.194875e+001
      vertex -1.500000e+001  1.134442e+001  3.423345e+001
    endloop
  endfacet
  facet normal -9.999999e-001  0.000000e+000  0.000000e+000
    outer loop
      vertex -1.500000e+001  3.987489e+001  3.072046e+001
      vertex -1.500000e+001  1.134442e+001  3.423345e+001
      vertex -1.500000e+001  2.897774e+001  3.522485e+001
    endloop
  endfacet
  facet normal -1.000000e+000  0.000000e+000  0.000000e+000
    outer loop
      vertex -1.500000e+001  5.945584e+001  1.766802e+001
      vertex -1.500000e+001  4.456814e+001  2.300733e+001
      vertex -1.500000e+001  5.009232e+001  2.483474e+001
    endloop
  endfacet
  facet normal -1.000000e+000  -0.000000e+000  0.000000e+000
    outer loop
      vertex -1.500000e+001  4.456814e+001  2.300733e+001
      vertex -1.500000e+001  5.945584e+001  1.766802e+001
      vertex -1.500000e+001  5.436039e+001  1.650213e+001
    endloop
  endfacet
  facet normal -9.999999e-001  0.000000e+000  0.000000e+000
    outer loop
      vertex -1.500000e+001  5.436039e+001  1.650213e+001
      vertex -1.500000e+001  5.945584e+001  1.766802e+001
      vertex -1.500000e+001  6.780585e+001  9.342463e+000
    endloop
  endfacet
  facet normal -1.000000e+000  -0.000000e+000  0.000000e+000
    outer loop
      vertex -1.500000e+001  5.436039e+001  1.650213e+001
      vertex -1.500000e+001  6.780585e+001  9.342463e+000
      vertex -1.500000e+001  6.322469e+001  8.780073e+000
    endloop
  endfacet
  facet normal -9.999999e-001  0.000000e+000  0.000000e+000
    outer loop
      vertex -1.500000e+001  6.322469e+001  8.780073e+000
      vertex -1.500000e+001  6.780585e+001  9.342463e+000
      vertex -1.500000e+001  7.500000e+001  7.107162e-015
    endloop
  endfacet
  facet normal -1.000000e+000  -0.000000e+000  0.000000e+000
    outer loop
      vertex -1.500000e+001  6.322469e+001  8.780073e+000
      vertex -1.500000e+001  7.500000e+001  7.107162e-015
      vertex -1.500000e+001  7.101083e+001 -2.798947e-002
    endloop
  endfacet
  facet normal  0.000000e+000 -1.916944e-004 -1.000000e+000
    outer loop
      vertex -1.500000e+001 -7.500000e+001  2.131628e-014
      vertex -1.500000e+001 -7.179745e+001 -6.139099e-004
      vertex  1.500000e+001 -7.500000e+001  2.131628e-014
    endloop
  endfacet
  facet normal  0.000000e+000 -1.916944e-004 -1.000000e+000
    outer loop
      vertex  1.500000e+001 -7.500000e+001  2.131628e-014
      vertex -1.500000e+001 -7.179745e+001 -6.139099e-004
      vertex  1.500000e+001 -7.179745e+001 -6.139099e-004
    endloop
  endfacet
  facet normal  0.000000e+000 -7.923107e-001  6.101179e-001
    outer loop
      vertex -1.500000e+001 -7.500000e+001  2.131628e-014
      vertex  1.500000e+001 -7.500000e+001  2.131628e-014
      vertex -1.500000e+001 -6.780585e+001  9.342463e+000
    endloop
  endfacet
  facet normal  0.000000e+000 -7.923107e-001  6.101179e-001
    outer loop
      vertex -1.500000e+001 -6.780585e+001  9.342463e+000
      vertex  1.500000e+001 -7.500000e+001  2.131628e-014
      vertex  1.500000e+001 -6.780585e+001  9.342463e+000
    endloop
  endfacet
  facet normal  0.000000e+000 -7.060691e-001  7.081429e-001
    outer loop
      vertex -1.500000e+001 -6.780585e+001  9.342463e+000
      vertex  1.500000e+001 -6.780585e+001  9.342463e+000
      vertex -1.500000e+001 -5.945584e+001  1.766802e+001
    endloop
  endfacet
  facet normal  0.000000e+000 -7.060691e-001  7.081429e-001
    outer loop
      vertex -1.500000e+001 -5.945584e+001  1.766802e+001
      vertex  1.500000e+001 -6.780585e+001  9.342463e+000
      vertex  1.500000e+001 -5.945584e+001  1.766802e+001
    endloop
  endfacet
  facet normal  0.000000e+000 -6.077915e-001  7.940966e-001
    outer loop
      vertex -1.500000e+001 -5.945584e+001  1.766802e+001
      vertex  1.500000e+001 -5.945584e+001  1.766802e+001
      vertex -1.500000e+001 -5.009232e+001  2.483474e+001
    endloop
  endfacet
  facet normal  0.000000e+000 -6.077915e-001  7.940966e-001
    outer loop
      vertex -1.500000e+001 -5.009232e+001  2.483474e+001
      vertex  1.500000e+001 -5.945584e+001  1.766802e+001
      vertex  1.500000e+001 -5.009232e+001  2.483474e+001
    endloop
  endfacet
  facet normal  0.000000e+000 -4.991530e-001  8.665138e-001
    outer loop
      vertex -1.500000e+001 -5.009232e+001  2.483474e+001
      vertex  1.500000e+001 -5.009232e+001  2.483474e+001
      vertex -1.500000e+001 -3.987489e+001  3.072046e+001
    endloop
  endfacet
  facet normal  0.000000e+000 -4.991530e-001  8.665138e-001
    outer loop
      vertex -1.500000e+001 -3.987489e+001  3.072046e+001
      vertex  1.500000e+001 -5.009232e+001  2.483474e+001
      vertex  1.500000e+001 -3.987489e+001  3.072046e+001
    endloop
  endfacet
  facet normal  0.000000e+000 -3.820060e-001  9.241598e-001
    outer loop
      vertex -1.500000e+001 -3.987489e+001  3.072046e+001
      vertex  1.500000e+001 -3.987489e+001  3.072046e+001
      vertex -1.500000e+001 -2.897774e+001  3.522485e+001
    endloop
  endfacet
  facet normal  0.000000e+000 -3.820060e-001  9.241598e-001
    outer loop
      vertex -1.500000e+001 -2.897774e+001  3.522485e+001
      vertex  1.500000e+001 -3.987489e+001  3.072046e+001
      vertex  1.500000e+001 -2.897774e+001  3.522485e+001
    endloop
  endfacet
  facet normal  0.000000e+000 -2.583469e-001  9.660522e-001
    outer loop
      vertex -1.500000e+001 -2.897774e+001  3.522485e+001
      vertex  1.500000e+001 -2.897774e+001  3.522485e+001
      vertex -1.500000e+001 -1.758662e+001  3.827113e+001
    endloop
  endfacet
  facet normal  0.000000e+000 -2.583469e-001  9.660522e-001
    outer loop
      vertex -1.500000e+001 -1.758662e+001  3.827113e+001
      vertex  1.500000e+001 -2.897774e+001  3.522485e+001
      vertex  1.500000e+001 -1.758662e+001  3.827113e+001
    endloop
  endfacet
  facet normal  0.000000e+000 -1.302836e-001  9.914767e-001
    outer loop
      vertex -1.500000e+001 -1.758662e+001  3.827113e+001
      vertex  1.500000e+001 -1.758662e+001  3.827113e+001
      vertex -1.500000e+001 -5.895707e+000  3.980735e+001
    endloop
  endfacet
  facet normal  0.000000e+000 -1.302836e-001  9.914767e-001
    outer loop
      vertex -1.500000e+001 -5.895707e+000  3.980735e+001
      vertex  1.500000e+001 -1.758662e+001  3.827113e+001
      vertex  1.500000e+001 -5.895707e+000  3.980735e+001
    endloop
  endfacet
  facet normal  0.000000e+000  0.000000e+000  1.000000e+000
    outer loop
      vertex -1.500000e+001 -5.895707e+000  3.980735e+001
      vertex  1.500000e+001 -5.895707e+000  3.980735e+001
      vertex -1.500000e+001  5.895707e+000  3.980735e+001
    endloop
  endfacet
  facet normal  -0.000000e+000  0.000000e+000  1.000000e+000
    outer loop
      vertex -1.500000e+001  5.895707e+000  3.980735e+001
      vertex  1.500000e+001 -5.895707e+000  3.980735e+001
      vertex  1.500000e+001  5.895707e+000  3.980735e+001
    endloop
  endfacet
  facet normal  0.000000e+000  1.302836e-001  9.914767e-001
    outer loop
      vertex -1.500000e+001  5.895707e+000  3.980735e+001
      vertex  1.500000e+001  5.895707e+000  3.980735e+001
      vertex -1.500000e+001  1.758662e+001  3.827113e+001
    endloop
  endfacet
  facet normal  -0.000000e+000  1.302836e-001  9.914767e-001
    outer loop
      vertex -1.500000e+001  1.758662e+001  3.827113e+001
      vertex  1.500000e+001  5.895707e+000  3.980735e+001
      vertex  1.500000e+001  1.758662e+001  3.827113e+001
    endloop
  endfacet
  facet normal  0.000000e+000  2.583469e-001  9.660522e-001
    outer loop
      vertex -1.500000e+001  1.758662e+001  3.827113e+001
      vertex  1.500000e+001  1.758662e+001  3.827113e+001
      vertex -1.500000e+001  2.897774e+001  3.522485e+001
    endloop
  endfacet
  facet normal  -0.000000e+000  2.583469e-001  9.660522e-001
    outer loop
      vertex -1.500000e+001  2.897774e+001  3.522485e+001
      vertex  1.500000e+001  1.758662e+001  3.827113e+001
      vertex  1.500000e+001  2.897774e+001  3.522485e+001
    endloop
  endfacet
  facet normal  0.000000e+000  3.820060e-001  9.241598e-001
    outer loop
      vertex -1.500000e+001  2.897774e+001  3.522485e+001
      vertex  1.500000e+001  2.897774e+001  3.522485e+001
      vertex -1.500000e+001  3.987489e+001  3.072046e+001
    endloop
  endfacet
  facet normal  -0.000000e+000  3.820060e-001  9.241598e-001
    outer loop
      vertex -1.500000e+001  3.987489e+001  3.072046e+001
      vertex  1.500000e+001  2.897774e+001  3.522485e+001
      vertex  1.500000e+001  3.987489e+001  3.072046e+001
    endloop
  endfacet
  facet normal  0.000000e+000  4.991530e-001  8.665138e-001
    outer loop
      vertex -1.500000e+001  3.987489e+001  3.072046e+001
      vertex  1.500000e+001  3.987489e+001  3.072046e+001
      vertex -1.500000e+001  5.009232e+001  2.483474e+001
    endloop
  endfacet
  facet normal  -0.000000e+000  4.991530e-001  8.665138e-001
    outer loop
      vertex -1.500000e+001  5.009232e+001  2.483474e+001
      vertex  1.500000e+001  3.987489e+001  3.072046e+001
      vertex  1.500000e+001  5.009232e+001  2.483474e+001
    endloop
  endfacet
  facet normal  0.000000e+000  6.077915e-001  7.940966e-001
    outer loop
      vertex -1.500000e+001  5.009232e+001  2.483474e+001
      vertex  1.500000e+001  5.009232e+001  2.483474e+001
      vertex -1.500000e+001  5.945584e+001  1.766802e+001
    endloop
  endfacet
  facet normal  -0.000000e+000  6.077915e-001  7.940966e-001
    outer loop
      vertex -1.500000e+001  5.945584e+001  1.766802e+001
      vertex  1.500000e+001  5.009232e+001  2.483474e+001
      vertex  1.500000e+001  5.945584e+001  1.766802e+001
    endloop
  endfacet
  facet normal  0.000000e+000  7.060691e-001  7.081429e-001
    outer loop
      vertex -1.500000e+001  5.945584e+001  1.766802e+001
      vertex  1.500000e+001  5.945584e+001  1.766802e+001
      vertex -1.500000e+001  6.780585e+001  9.342463e+000
    endloop
  endfacet
  facet normal  -0.000000e+000  7.060691e-001  7.081429e-001
    outer loop
      vertex -1.500000e+001  6.780585e+001  9.342463e+000
      vertex  1.500000e+001  5.945584e+001  1.766802e+001
      vertex  1.500000e+001  6.780585e+001  9.342463e+000
    endloop
  endfacet
  facet normal  0.000000e+000  7.923107e-001  6.101179e-001
    outer loop
      vertex -1.500000e+001  6.780585e+001  9.342463e+000
      vertex  1.500000e+001  6.780585e+001  9.342463e+000
      vertex -1.500000e+001  7.500000e+001  7.107162e-015
    endloop
  endfacet
  facet normal  -0.000000e+000  7.923107e-001  6.101179e-001
    outer loop
      vertex -1.500000e+001  7.500000e+001  7.107162e-015
      vertex  1.500000e+001  6.780585e+001  9.342463e+000
      vertex  1.500000e+001  7.500000e+001  7.107162e-015
    endloop
  endfacet
  facet normal  0.000000e+000  7.016186e-003 -9.999754e-001
    outer loop
      vertex -1.500000e+001  7.101083e+001 -2.798947e-002
      vertex -1.500000e+001  7.500000e+001  7.107162e-015
      vertex  1.500000e+001  7.101083e+001 -2.798947e-002
    endloop
  endfacet
  facet normal  0.000000e+000  7.016186e-003 -9.999754e-001
    outer loop
      vertex  1.500000e+001  7.101083e+001 -2.798947e-002
      vertex -1.500000e+001  7.500000e+001  7.107162e-015
      vertex  1.500000e+001  7.500000e+001  7.107162e-015
    endloop
  endfacet
  facet normal  0.000000e+000  6.489442e-002 -9.978921e-001
    outer loop
      vertex -1.500000e+001 -3.866042e-001  3.500085e+001
      vertex  1.500000e+001 -1.211792e+001  3.423795e+001
      vertex -1.500000e+001 -1.211792e+001  3.423795e+001
    endloop
  endfacet
  facet normal  0.000000e+000  1.939661e-001 -9.810083e-001
    outer loop
      vertex -1.500000e+001 -1.211792e+001  3.423795e+001
      vertex  1.500000e+001 -1.211792e+001  3.423795e+001
      vertex  1.500000e+001 -2.365075e+001  3.195766e+001
    endloop
  endfacet
  facet normal  0.000000e+000  1.939661e-001 -9.810083e-001
    outer loop
      vertex -1.500000e+001 -1.211792e+001  3.423795e+001
      vertex  1.500000e+001 -2.365075e+001  3.195766e+001
      vertex -1.500000e+001 -2.365075e+001  3.195766e+001
    endloop
  endfacet
  facet normal  0.000000e+000  3.197511e-001 -9.475015e-001
    outer loop
      vertex -1.500000e+001 -2.365075e+001  3.195766e+001
      vertex  1.500000e+001 -2.365075e+001  3.195766e+001
      vertex  1.500000e+001 -3.478967e+001  2.819864e+001
    endloop
  endfacet
  facet normal  0.000000e+000  3.197511e-001 -9.475015e-001
    outer loop
      vertex -1.500000e+001 -2.365075e+001  3.195766e+001
      vertex  1.500000e+001 -3.478967e+001  2.819864e+001
      vertex -1.500000e+001 -3.478967e+001  2.819864e+001
    endloop
  endfacet
  facet normal  0.000000e+000  4.401181e-001 -8.979399e-001
    outer loop
      vertex -1.500000e+001 -3.478967e+001  2.819864e+001
      vertex  1.500000e+001 -3.478967e+001  2.819864e+001
      vertex  1.500000e+001 -4.534594e+001  2.302457e+001
    endloop
  endfacet
  facet normal  0.000000e+000  4.401181e-001 -8.979399e-001
    outer loop
      vertex -1.500000e+001 -3.478967e+001  2.819864e+001
      vertex  1.500000e+001 -4.534594e+001  2.302457e+001
      vertex -1.500000e+001 -4.534594e+001  2.302457e+001
    endloop
  endfacet
  facet normal  0.000000e+000  5.530276e-001 -8.331630e-001
    outer loop
      vertex -1.500000e+001 -4.534594e+001  2.302457e+001
      vertex  1.500000e+001 -4.534594e+001  2.302457e+001
      vertex  1.500000e+001 -5.514069e+001  1.652312e+001
    endloop
  endfacet
  facet normal  0.000000e+000  5.530276e-001 -8.331630e-001
    outer loop
      vertex -1.500000e+001 -4.534594e+001  2.302457e+001
      vertex  1.500000e+001 -5.514069e+001  1.652312e+001
      vertex -1.500000e+001 -5.514069e+001  1.652312e+001
    endloop
  endfacet
  facet normal  0.000000e+000  6.565662e-001 -7.542684e-001
    outer loop
      vertex -1.500000e+001 -5.514069e+001  1.652312e+001
      vertex  1.500000e+001 -5.514069e+001  1.652312e+001
      vertex  1.500000e+001 -6.400794e+001  8.804462e+000
    endloop
  endfacet
  facet normal  0.000000e+000  6.565662e-001 -7.542684e-001
    outer loop
      vertex -1.500000e+001 -5.514069e+001  1.652312e+001
      vertex  1.500000e+001 -6.400794e+001  8.804462e+000
      vertex -1.500000e+001 -6.400794e+001  8.804462e+000
    endloop
  endfacet
  facet normal  0.000000e+000  7.489794e-001 -6.625933e-001
    outer loop
      vertex -1.500000e+001 -6.400794e+001  8.804462e+000
      vertex  1.500000e+001 -6.400794e+001  8.804462e+000
      vertex  1.500000e+001 -7.179745e+001 -6.139099e-004
    endloop
  endfacet
  facet normal  0.000000e+000  7.489794e-001 -6.625933e-001
    outer loop
      vertex -1.500000e+001 -6.400794e+001  8.804462e+000
      vertex  1.500000e+001 -7.179745e+001 -6.139099e-004
      vertex -1.500000e+001 -7.179745e+001 -6.139099e-004
    endloop
  endfacet
  facet normal  0.000000e+000  6.489442e-002 -9.978921e-001
    outer loop
      vertex  1.500000e+001 -1.211792e+001  3.423795e+001
      vertex -1.500000e+001 -3.866042e-001  3.500085e+001
      vertex  1.500000e+001 -3.866042e-001  3.500085e+001
    endloop
  endfacet
  facet normal  -0.000000e+000 -6.527698e-002 -9.978672e-001
    outer loop
      vertex  1.500000e+001 -3.866042e-001  3.500085e+001
      vertex -1.500000e+001 -3.866042e-001  3.500085e+001
      vertex -1.500000e+001  1.134442e+001  3.423345e+001
    endloop
  endfacet
  facet normal  0.000000e+000 -6.527698e-002 -9.978672e-001
    outer loop
      vertex  1.500000e+001 -3.866042e-001  3.500085e+001
      vertex -1.500000e+001  1.134442e+001  3.423345e+001
      vertex  1.500000e+001  1.134442e+001  3.423345e+001
    endloop
  endfacet
  facet normal  -0.000000e+000 -1.943422e-001 -9.809338e-001
    outer loop
      vertex  1.500000e+001  1.134442e+001  3.423345e+001
      vertex -1.500000e+001  1.134442e+001  3.423345e+001
      vertex -1.500000e+001  2.287638e+001  3.194875e+001
    endloop
  endfacet
  facet normal  0.000000e+000 -1.943422e-001 -9.809338e-001
    outer loop
      vertex  1.500000e+001  1.134442e+001  3.423345e+001
      vertex -1.500000e+001  2.287638e+001  3.194875e+001
      vertex  1.500000e+001  2.287638e+001  3.194875e+001
    endloop
  endfacet
  facet normal  -0.000000e+000 -3.201144e-001 -9.473789e-001
    outer loop
      vertex  1.500000e+001  2.287638e+001  3.194875e+001
      vertex -1.500000e+001  2.287638e+001  3.194875e+001
      vertex -1.500000e+001  3.401385e+001  2.818545e+001
    endloop
  endfacet
  facet normal  0.000000e+000 -3.201144e-001 -9.473789e-001
    outer loop
      vertex  1.500000e+001  2.287638e+001  3.194875e+001
      vertex -1.500000e+001  3.401385e+001  2.818545e+001
      vertex  1.500000e+001  3.401385e+001  2.818545e+001
    endloop
  endfacet
  facet normal  -0.000000e+000 -4.404624e-001 -8.977711e-001
    outer loop
      vertex  1.500000e+001  3.401385e+001  2.818545e+001
      vertex -1.500000e+001  3.401385e+001  2.818545e+001
      vertex -1.500000e+001  4.456814e+001  2.300733e+001
    endloop
  endfacet
  facet normal  0.000000e+000 -4.404624e-001 -8.977711e-001
    outer loop
      vertex  1.500000e+001  3.401385e+001  2.818545e+001
      vertex -1.500000e+001  4.456814e+001  2.300733e+001
      vertex  1.500000e+001  4.456814e+001  2.300733e+001
    endloop
  endfacet
  facet normal  -0.000000e+000 -5.533470e-001 -8.329509e-001
    outer loop
      vertex  1.500000e+001  4.456814e+001  2.300733e+001
      vertex -1.500000e+001  4.456814e+001  2.300733e+001
      vertex -1.500000e+001  5.436039e+001  1.650213e+001
    endloop
  endfacet
  facet normal  0.000000e+000 -5.533470e-001 -8.329509e-001
    outer loop
      vertex  1.500000e+001  4.456814e+001  2.300733e+001
      vertex -1.500000e+001  5.436039e+001  1.650213e+001
      vertex  1.500000e+001  5.436039e+001  1.650213e+001
    endloop
  endfacet
  facet normal  -0.000000e+000 -6.568552e-001 -7.540168e-001
    outer loop
      vertex  1.500000e+001  5.436039e+001  1.650213e+001
      vertex -1.500000e+001  5.436039e+001  1.650213e+001
      vertex -1.500000e+001  6.322469e+001  8.780073e+000
    endloop
  endfacet
  facet normal  0.000000e+000 -6.568552e-001 -7.540168e-001
    outer loop
      vertex  1.500000e+001  5.436039e+001  1.650213e+001
      vertex -1.500000e+001  6.322469e+001  8.780073e+000
      vertex  1.500000e+001  6.322469e+001  8.780073e+000
    endloop
  endfacet
  facet normal  -0.000000e+000 -7.492334e-001 -6.623061e-001
    outer loop
      vertex  1.500000e+001  6.322469e+001  8.780073e+000
      vertex -1.500000e+001  6.322469e+001  8.780073e+000
      vertex -1.500000e+001  7.101083e+001 -2.798947e-002
    endloop
  endfacet
  facet normal  0.000000e+000 -7.492334e-001 -6.623061e-001
    outer loop
      vertex  1.500000e+001  6.322469e+001  8.780073e+000
      vertex -1.500000e+001  7.101083e+001 -2.798947e-002
      vertex  1.500000e+001  7.101083e+001 -2.798947e-002
    endloop
  endfacet
endsolid CATIA STL
